<?xml version="1.0" encoding="UTF-8"?>
<svg width="619px" height="99px" viewBox="0 0 619 99" version="1.1" xmlns="http://www.w3.org/2000/svg" xmlns:xlink="http://www.w3.org/1999/xlink">
    <!-- Generator: Sketch 3.8.1 (29687) - http://www.bohemiancoding.com/sketch -->
    <title>OpenCharity</title>
    <desc>Created with Sketch.</desc>
    <defs>
        <rect id="path-1" x="0" y="0" width="841.89" height="595.28"></rect>
        <rect id="path-3" x="0" y="0" width="841.89" height="595.28"></rect>
        <rect id="path-5" x="0" y="0" width="841.89" height="595.28"></rect>
        <rect id="path-7" x="0" y="0" width="841.89" height="595.28"></rect>
    </defs>
    <g id="Page-1" stroke="none" stroke-width="1" fill="none" fill-rule="evenodd">
        <g id="OpenCharity" transform="translate(-111.000000, -249.000000)">
            <g id="Group">
                <g id="Clipped">
                    <mask id="mask-2" fill="white">
                        <use xlink:href="#path-1"></use>
                    </mask>
                    <g id="SVGID_1_"></g>
                    <path d="M111.89,318.93 C118.758,324.993 127.773,328.679 137.654,328.679 C159.167,328.679 176.608,311.238 176.608,289.724 C176.608,279.843 172.923,270.827 166.86,263.96 L153.027,277.793 C155.59,281.092 157.13,285.224 157.13,289.724 C157.13,300.481 148.411,309.202 137.654,309.202 C133.154,309.202 129.021,307.661 125.723,305.098 L111.89,318.93 L111.89,318.93 Z" id="Shape" fill="#61C0BD" mask="url(#mask-2)"></path>
                </g>
                <g id="Clipped">
                    <mask id="mask-4" fill="white">
                        <use xlink:href="#path-3"></use>
                    </mask>
                    <g id="SVGID_1_"></g>
                    <path d="M435.056,260.517 C428.188,254.454 419.173,250.768 409.292,250.768 C387.779,250.768 370.338,268.209 370.338,289.723 C370.338,299.604 374.023,308.619 380.086,315.487 L393.919,301.654 C391.356,298.356 389.816,294.223 389.816,289.723 C389.816,278.966 398.535,270.246 409.292,270.246 C413.792,270.246 417.925,271.787 421.223,274.35 L435.056,260.517 L435.056,260.517 Z" id="Shape" fill="#585757" mask="url(#mask-4)"></path>
                </g>
                <g id="Clipped">
                    <mask id="mask-6" fill="white">
                        <use xlink:href="#path-5"></use>
                    </mask>
                    <g id="SVGID_1_"></g>
                    <path d="M361.168,295.292 C361.168,282.387 357.155,272.411 341.648,272.411 C333.948,272.411 329.067,276.314 326.14,281.085 L325.922,281.085 L326.032,273.387 L308.679,273.387 L308.679,326.851 L326.032,326.851 L326.032,300.391 C326.032,292.691 328.091,286.618 335.574,286.618 C342.732,286.618 343.816,291.931 343.816,298.979 L343.816,326.851 L361.168,326.851 L361.168,295.292 L361.168,295.292 Z M264.649,294.425 C264.867,289.326 268.554,283.688 275.711,283.688 C282.977,283.688 286.556,289.544 286.664,294.425 L264.649,294.425 L264.649,294.425 Z M302.823,298.546 C302.823,282.929 291.869,272.411 276.036,272.411 C260.202,272.411 247.189,282.497 247.189,300.173 C247.189,317.851 259.226,328.045 275.711,328.045 C292.303,328.045 299.353,320.671 301.087,319.368 L294.256,310.366 C291.219,312.428 285.146,315.464 278.206,315.464 C271.156,315.464 265.299,311.993 264.541,304.294 L302.607,304.294 C302.607,304.294 302.823,301.148 302.823,298.546 L302.823,298.546 Z M226.476,299.956 C226.476,308.198 221.379,313.838 213.896,313.838 C206.522,313.838 201.425,308.198 201.425,299.956 C201.425,291.714 206.522,286.073 213.896,286.073 C221.378,286.073 226.476,291.714 226.476,299.956 L226.476,299.956 Z M244.153,300.173 C244.153,284.447 234.393,272.411 218.992,272.411 C210.858,272.411 205.111,275.555 201.206,280.219 L200.99,280.219 L201.098,273.387 L184.614,273.387 L184.614,346.481 L201.966,346.481 L201.966,320.129 C205.327,325.115 210.968,328.045 218.884,328.045 C234.394,328.045 244.153,315.897 244.153,300.173 L244.153,300.173 Z" id="Shape" fill="#61C0BD" mask="url(#mask-6)"></path>
                </g>
                <g id="Clipped">
                    <mask id="mask-8" fill="white">
                        <use xlink:href="#path-7"></use>
                    </mask>
                    <g id="SVGID_1_"></g>
                    <path d="M712.106,273.385 L700.068,307.763 L687.922,273.385 L669.812,273.385 L690.958,325.224 L689.006,329.887 C687.598,333.358 685.753,333.358 683.801,333.358 C681.198,333.358 677.404,331.948 677.404,331.948 L673.933,344.745 C673.933,344.745 679.681,347.348 688.79,347.348 C697.899,347.348 702.238,341.493 706.142,331.949 L730,273.385 L712.106,273.385 L712.106,273.385 Z M669.053,273.493 L657.234,273.493 L657.234,258.962 L639.773,258.962 L639.773,273.493 L632.181,273.493 L632.181,286.616 L639.773,286.616 L639.773,307.33 C639.773,315.465 640.857,319.911 643.569,323.055 C646.28,326.201 650.401,328.043 656.582,328.043 C662.873,328.043 667.644,326.634 668.945,326.31 L668.078,312.752 C668.078,312.752 665.584,313.729 662.873,313.729 C660.596,313.729 659.512,313.294 658.751,312.428 C657.884,311.451 657.234,310.367 657.234,305.813 L657.234,286.617 L669.053,286.617 L669.053,273.493 L669.053,273.493 Z M625.457,273.385 L608.105,273.385 L608.105,326.85 L625.457,326.85 L625.457,273.385 L625.457,273.385 Z M626.651,258.202 C626.651,252.889 622.638,249.202 616.781,249.202 C610.926,249.202 606.913,252.889 606.913,258.202 C606.913,263.625 610.926,267.204 616.781,267.204 C622.639,267.205 626.651,263.625 626.651,258.202 L626.651,258.202 Z M602.034,273.385 C602.034,273.385 600.19,272.409 596.611,272.409 C590.863,272.409 586.417,275.12 583.38,280.977 L583.162,280.977 L583.272,273.385 L565.92,273.385 L565.92,326.851 L583.273,326.851 L583.273,303.1 C583.273,297.136 584.683,293.665 585.984,291.931 C587.284,290.195 590.105,288.026 594.008,288.026 C597.045,288.026 599.323,288.785 600.298,289.327 L601.058,289.327 L602.034,273.385 L602.034,273.385 Z M537.941,312.103 C536.858,313.947 533.712,316.983 529.048,316.983 C524.276,316.983 520.914,314.489 520.914,310.368 C520.914,306.355 524.06,304.077 529.372,303.861 L537.94,303.318 L537.94,312.103 L537.941,312.103 Z M555.187,296.702 C555.187,287.7 552.909,282.495 548.788,278.591 C544.558,274.687 538.81,272.409 528.832,272.409 C518.855,272.409 510.504,275.554 505.949,277.832 L510.504,289.11 C513.216,287.376 520.048,284.338 526.881,284.338 C533.821,284.338 537.834,287.266 537.834,292.907 L537.834,294.098 L524.386,294.642 C514.518,295.074 503.565,299.086 503.565,311.017 C503.565,322.946 513.542,328.042 522.977,328.042 C531.653,328.042 535.992,323.487 538.269,321.21 L538.593,326.851 L555.188,326.851 L555.188,296.702 L555.187,296.702 Z M496.298,295.292 C496.298,282.279 492.285,272.409 476.777,272.409 C468.861,272.409 463.764,276.314 461.053,281.085 C461.053,281.085 461.16,275.228 461.16,269.806 L461.16,252.021 L443.81,252.021 L443.81,326.851 L461.161,326.851 L461.161,300.607 C461.161,292.689 463.438,286.616 470.705,286.616 C477.972,286.616 478.839,292.255 478.839,298.763 L478.839,326.851 L496.299,326.851 L496.299,295.292 L496.298,295.292 Z" id="Shape" fill="#585757" mask="url(#mask-8)"></path>
                </g>
            </g>
        </g>
    </g>
</svg>